<svg width="96" height="19" viewBox="0 0 96 19" fill="none" xmlns="http://www.w3.org/2000/svg">
<path d="M5.96 10.08L4.352 6.72H4.28V18H0.848V1.248H4.832L9.416 9.168L11.024 12.528H11.096V1.248H14.528V18H10.544L5.96 10.08Z" fill="black"/>
<path d="M23.7352 18.288C22.6312 18.288 21.6232 18.104 20.7112 17.736C19.7992 17.368 19.0232 16.824 18.3832 16.104C17.7432 15.368 17.2472 14.464 16.8952 13.392C16.5432 12.304 16.3672 11.048 16.3672 9.624C16.3672 8.2 16.5432 6.952 16.8952 5.88C17.2472 4.792 17.7432 3.888 18.3832 3.168C19.0232 2.432 19.7992 1.88 20.7112 1.512C21.6232 1.144 22.6312 0.959999 23.7352 0.959999C24.8392 0.959999 25.8472 1.144 26.7592 1.512C27.6712 1.88 28.4472 2.432 29.0872 3.168C29.7272 3.888 30.2232 4.792 30.5752 5.88C30.9272 6.952 31.1032 8.2 31.1032 9.624C31.1032 11.048 30.9272 12.304 30.5752 13.392C30.2232 14.464 29.7272 15.368 29.0872 16.104C28.4472 16.824 27.6712 17.368 26.7592 17.736C25.8472 18.104 24.8392 18.288 23.7352 18.288ZM23.7352 15.048C24.8392 15.048 25.6952 14.688 26.3032 13.968C26.9272 13.248 27.2392 12.216 27.2392 10.872V8.376C27.2392 7.032 26.9272 6 26.3032 5.28C25.6952 4.56 24.8392 4.2 23.7352 4.2C22.6312 4.2 21.7672 4.56 21.1432 5.28C20.5352 6 20.2312 7.032 20.2312 8.376V10.872C20.2312 12.216 20.5352 13.248 21.1432 13.968C21.7672 14.688 22.6312 15.048 23.7352 15.048Z" fill="black"/>
<path d="M39.716 18.288C38.58 18.288 37.556 18.112 36.644 17.76C35.732 17.392 34.956 16.856 34.316 16.152C33.676 15.432 33.18 14.544 32.828 13.488C32.476 12.416 32.3 11.168 32.3 9.744C32.3 8.336 32.476 7.088 32.828 6C33.18 4.896 33.676 3.976 34.316 3.24C34.956 2.488 35.732 1.92 36.644 1.536C37.556 1.152 38.58 0.959999 39.716 0.959999C41.268 0.959999 42.548 1.28 43.556 1.92C44.564 2.544 45.372 3.536 45.98 4.896L42.836 6.528C42.612 5.824 42.26 5.264 41.78 4.848C41.316 4.416 40.628 4.2 39.716 4.2C38.644 4.2 37.78 4.552 37.124 5.256C36.484 5.944 36.164 6.952 36.164 8.28V10.968C36.164 12.296 36.484 13.312 37.124 14.016C37.78 14.704 38.644 15.048 39.716 15.048C40.612 15.048 41.324 14.808 41.852 14.328C42.396 13.832 42.796 13.24 43.052 12.552L46.028 14.28C45.404 15.56 44.58 16.552 43.556 17.256C42.548 17.944 41.268 18.288 39.716 18.288Z" fill="black"/>
<path d="M47.3808 18V1.248H58.7808V4.488H51.0288V7.92H57.6768V11.136H51.0288V14.76H58.7808V18H47.3808Z" fill="black"/>
<path d="M60.1109 18V15.096H62.2709V4.152H60.1109V1.248H68.0789V4.152H65.9189V15.096H68.0789V18H60.1109Z" fill="black"/>
<path d="M69.9183 18V1.248H77.8383C78.6223 1.248 79.3263 1.384 79.9503 1.656C80.5743 1.912 81.1023 2.272 81.5343 2.736C81.9823 3.2 82.3263 3.768 82.5663 4.44C82.8063 5.096 82.9263 5.816 82.9263 6.6C82.9263 7.4 82.8063 8.128 82.5663 8.784C82.3263 9.44 81.9823 10 81.5343 10.464C81.1023 10.928 80.5743 11.296 79.9503 11.568C79.3263 11.824 78.6223 11.952 77.8383 11.952H73.5663V18H69.9183ZM73.5663 8.784H77.4063C77.9503 8.784 78.3743 8.648 78.6783 8.376C78.9983 8.088 79.1583 7.672 79.1583 7.128V6.072C79.1583 5.528 78.9983 5.12 78.6783 4.848C78.3743 4.56 77.9503 4.416 77.4063 4.416H73.5663V8.784Z" fill="black"/>
<path d="M91.4523 4.488V18H87.8043V4.488H83.2683V1.248H95.9883V4.488H91.4523Z" fill="black"/>
</svg>
