<svg width="93" height="88" viewBox="0 0 93 88" fill="none" xmlns="http://www.w3.org/2000/svg">
<path d="M24 87H13H0V77C0 77 9 77 11 75C13 73 13 70 13 70C13 48.9991 13 31.1391 13 31.1391V18C13 18 13 15 11 13C9 11 0 11 0 11V2.09808e-05L12.695 8.58307e-06L25.875 2.09808e-05L32.195 1.43051e-05L38.195 8.58307e-06C38.195 8.58307e-06 48.5208 15.5417 53.9375 23.625L68.695 44.5L63 33V8.58307e-06L68 10L73 8.58307e-06L78 10L83 8.58307e-06L88 10L93 0V6.5V13V16V25.5V33V57V88H84.5H72H70L34.0625 38L34 61.5V64.6369V65.5V71C34 71 34 73 36 75C38 77 47 77 47 77V87H33H24Z" fill="white"/>
</svg>
